<svg width="512" height="512" xmlns="http://www.w3.org/2000/svg">

 <g>
  <title>Layer 1</title>
  <path id="svg_1" fill="#007BFF" d="m141.25,434.4912a25.5082,25.5082 0 0 0 25.5083,25.5088l178.4817,0a25.51,25.51 0 0 0 25.51,-25.5088l0,-46.7412l-229.5,0l0,46.7412zm89.2458,-23.3662l51,0a12.75,12.75 0 0 1 0,25.5l-51,0a12.75,12.75 0 0 1 0,-25.5z"/>
  <path id="svg_2" fill="#007BFF" d="m345.24,52l-178.4817,0a25.5087,25.5087 0 0 0 -25.5083,25.5093l0,284.7407l229.5,0l0,-284.7407a25.51,25.51 0 0 0 -25.51,-25.5093zm-16.99,195.5171a12.7341,12.7341 0 0 1 -12.7334,12.7329l-17.0353,0a12.7324,12.7324 0 0 1 -12.7313,-12.7329l0,-12.7671l-0.0042,0l-59.4958,0l0,12.7671a12.7341,12.7341 0 0 1 -12.7334,12.7329l-17.0353,0a12.7324,12.7324 0 0 1 -12.7313,-12.7329l0,-51.0337a12.7328,12.7328 0 0 1 12.7313,-12.7334l17.0353,0a12.7346,12.7346 0 0 1 12.7334,12.7334l0,12.7666l59.4958,0l0.0042,0l0,-12.7666a12.7328,12.7328 0 0 1 12.7313,-12.7334l17.0353,0a12.7346,12.7346 0 0 1 12.7334,12.7334l0,51.0337z"/>
 </g>
</svg>